<?xml version="1.0" encoding="UTF-8"?>
<!DOCTYPE svg PUBLIC "-//W3C//DTD SVG 1.1//EN" "http://www.w3.org/Graphics/SVG/1.1/DTD/svg11.dtd">
<svg xmlns="http://www.w3.org/2000/svg" version="1.1" width="96px" height="96px" style="shape-rendering:geometricPrecision; text-rendering:geometricPrecision; image-rendering:optimizeQuality; fill-rule:evenodd; clip-rule:evenodd" xmlns:xlink="http://www.w3.org/1999/xlink">
<g><path style="opacity:0.989" fill="#272823" d="M 5.5,-0.5 C 33.5,-0.5 61.5,-0.5 89.5,-0.5C 91.8333,1.16667 93.8333,3.16667 95.5,5.5C 95.5,33.5 95.5,61.5 95.5,89.5C 93.8333,91.8333 91.8333,93.8333 89.5,95.5C 61.5,95.5 33.5,95.5 5.5,95.5C 3.16667,93.8333 1.16667,91.8333 -0.5,89.5C -0.5,61.5 -0.5,33.5 -0.5,5.5C 1.16667,3.16667 3.16667,1.16667 5.5,-0.5 Z"/></g>
<g><path style="opacity:1" fill="#f1f1ec" d="M 24.5,55.5 C 25.0283,56.7206 25.695,57.8873 26.5,59C 29.146,59.4974 31.8127,59.6641 34.5,59.5C 35.609,59.5569 36.609,59.8902 37.5,60.5C 37.5,61.8333 37.5,63.1667 37.5,64.5C 33.3302,66.2294 28.9969,66.7294 24.5,66C 21.6141,64.6155 19.6141,62.4488 18.5,59.5C 18.5,45.8333 18.5,32.1667 18.5,18.5C 15.1667,18.5 11.8333,18.5 8.5,18.5C 8.5,17.1667 8.5,15.8333 8.5,14.5C 13.5,14.5 18.5,14.5 23.5,14.5C 23.171,28.3435 23.5043,42.0102 24.5,55.5 Z"/></g>
<g><path style="opacity:1" fill="#c2c2bd" d="M 24.5,55.5 C 23.5043,42.0102 23.171,28.3435 23.5,14.5C 18.5,14.5 13.5,14.5 8.5,14.5C 8.5,15.8333 8.5,17.1667 8.5,18.5C 11.8333,18.5 15.1667,18.5 18.5,18.5C 18.5,32.1667 18.5,45.8333 18.5,59.5C 17.5044,46.3438 17.1711,33.0105 17.5,19.5C 14.1667,19.5 10.8333,19.5 7.5,19.5C 7.5,17.5 7.5,15.5 7.5,13.5C 13.1667,13.5 18.8333,13.5 24.5,13.5C 24.5,27.5 24.5,41.5 24.5,55.5 Z"/></g>
<g><path style="opacity:1" fill="#f1f1eb" d="M 84.5,86.5 C 82.3647,88.369 79.6981,89.0356 76.5,88.5C 73.6237,81.0806 69.9571,74.0806 65.5,67.5C 61.8927,66.5108 58.226,66.1774 54.5,66.5C 54.5,73.8333 54.5,81.1667 54.5,88.5C 51.8333,88.5 49.1667,88.5 46.5,88.5C 46.5,69.1667 46.5,49.8333 46.5,30.5C 53.9887,29.3443 61.6554,29.1777 69.5,30C 80.8479,33.8565 85.0146,41.6898 82,53.5C 79.7386,57.9295 76.572,61.5961 72.5,64.5C 77.5409,71.2472 81.5409,78.5805 84.5,86.5 Z"/></g>
<g><path style="opacity:1" fill="#7e7f7a" d="M 46.5,30.5 C 46.5,49.8333 46.5,69.1667 46.5,88.5C 49.1667,88.5 51.8333,88.5 54.5,88.5C 51.7131,89.4767 48.7131,89.81 45.5,89.5C 45.1696,69.6596 45.5029,49.9929 46.5,30.5 Z"/></g>
<g><path style="opacity:1" fill="#d1d1cc" d="M 54.5,36.5 C 54.5,43.8333 54.5,51.1667 54.5,58.5C 59.2303,58.7166 63.8969,58.3833 68.5,57.5C 68.3893,58.1174 68.056,58.6174 67.5,59C 62.8452,59.4992 58.1785,59.6658 53.5,59.5C 53.1746,51.6484 53.508,43.9818 54.5,36.5 Z"/></g>
<g><path style="opacity:1" fill="#2a2b26" d="M 54.5,36.5 C 58.5138,36.3345 62.5138,36.5012 66.5,37C 73.3405,39.5126 75.8405,44.346 74,51.5C 72.839,54.1848 71.0056,56.1848 68.5,57.5C 63.8969,58.3833 59.2303,58.7166 54.5,58.5C 54.5,51.1667 54.5,43.8333 54.5,36.5 Z"/></g>
<g><path style="opacity:1" fill="#92928d" d="M 34.5,59.5 C 35.9473,58.1148 36.9473,58.4482 37.5,60.5C 36.609,59.8902 35.609,59.5569 34.5,59.5 Z"/></g>
<g><path style="opacity:1" fill="#a4a49f" d="M 84.5,86.5 C 85.404,87.209 85.7373,88.209 85.5,89.5C 82.2869,89.81 79.2869,89.4767 76.5,88.5C 79.6981,89.0356 82.3647,88.369 84.5,86.5 Z"/></g>
</svg>
