<?xml version="1.0" standalone="no"?>
<!DOCTYPE svg PUBLIC "-//W3C//DTD SVG 20010904//EN"
 "http://www.w3.org/TR/2001/REC-SVG-20010904/DTD/svg10.dtd">
<svg version="1.0" xmlns="http://www.w3.org/2000/svg"
 width="201.000000pt" height="211.000000pt" viewBox="0 0 201.000000 211.000000"
 preserveAspectRatio="xMidYMid meet">

<g transform="translate(0.000000,211.000000) scale(0.100000,-0.100000)"
fill="#000000" stroke="none">
<path d="M590 1945 c0 -8 -7 -15 -15 -15 -12 0 -15 -13 -15 -55 0 -42 3 -55
15 -55 8 0 15 -6 15 -14 0 -8 7 -17 16 -20 20 -8 778 -8 798 0 9 3 16 12 16
20 0 8 7 14 15 14 12 0 15 13 15 55 0 42 -3 55 -15 55 -8 0 -15 7 -15 15 0 8
-7 15 -15 15 -8 0 -15 -7 -15 -15 0 -8 7 -15 15 -15 11 0 15 -11 15 -40 0 -38
-2 -40 -30 -40 -16 0 -30 -4 -30 -10 0 -6 -125 -10 -355 -10 -230 0 -355 4
-355 10 0 6 -13 10 -30 10 -28 0 -30 2 -30 40 0 29 4 40 15 40 8 0 15 7 15 15
0 8 -7 15 -15 15 -8 0 -15 -7 -15 -15z"/>
<path d="M560 1730 c0 -11 -7 -20 -15 -20 -8 0 -15 -9 -15 -19 0 -11 -3 -26
-6 -35 -4 -12 0 -16 15 -16 12 0 21 5 21 10 0 6 7 10 15 10 8 0 15 7 15 15 0
13 53 15 415 15 362 0 415 -2 415 -15 0 -8 7 -15 15 -15 8 0 15 -4 15 -10 0
-5 14 -10 30 -10 17 0 30 5 30 10 0 6 -7 10 -15 10 -9 0 -15 9 -15 25 0 16 -6
25 -15 25 -8 0 -15 9 -15 20 0 20 -7 20 -445 20 -438 0 -445 0 -445 -20z"/>
<path d="M670 1590 c0 -40 4 -70 10 -70 6 0 10 -18 10 -40 0 -33 3 -40 20 -40
15 0 20 -7 20 -25 0 -14 5 -25 10 -25 6 0 10 -9 10 -20 0 -11 7 -20 15 -20 10
0 15 -10 15 -30 0 -27 3 -30 30 -30 17 0 30 -4 30 -10 0 -6 63 -10 170 -10
107 0 170 4 170 10 0 6 14 10 30 10 20 0 30 5 30 15 0 8 5 15 10 15 6 0 10 16
10 35 0 19 5 35 10 35 6 0 10 11 10 25 0 18 5 25 19 25 15 0 20 10 25 48 15
109 18 172 7 172 -6 0 -11 -4 -11 -10 0 -5 -9 -10 -20 -10 -14 0 -20 -7 -20
-24 0 -13 -6 -26 -14 -29 -10 -4 -13 -17 -10 -41 2 -21 0 -36 -6 -36 -5 0 -10
-13 -10 -30 0 -23 -4 -30 -20 -30 -17 0 -20 -7 -20 -40 0 -22 -4 -40 -10 -40
-5 0 -10 -11 -10 -25 l0 -25 -170 0 -170 0 0 25 c0 16 -6 25 -15 25 -11 0 -15
11 -15 40 0 29 -4 40 -15 40 -10 0 -15 10 -15 29 0 17 -6 31 -15 35 -11 4 -14
13 -10 29 4 15 1 30 -9 40 -9 8 -16 25 -16 36 0 14 -6 21 -20 21 -11 0 -20 5
-20 10 0 6 -4 10 -10 10 -6 0 -10 -30 -10 -70z"/>
<path d="M440 1525 c0 -10 -10 -15 -30 -15 -20 0 -30 -5 -30 -15 0 -8 -7 -15
-15 -15 -13 0 -15 -55 -15 -435 0 -378 2 -436 15 -441 8 -4 15 -12 15 -20 0
-9 11 -14 30 -14 20 0 30 -5 30 -15 0 -8 5 -15 10 -15 14 0 12 59 -2 74 -7 7
-21 15 -30 19 -17 6 -18 35 -18 411 0 399 0 404 20 399 15 -4 20 0 20 16 0 11
5 21 10 21 6 0 10 14 10 30 0 17 -4 30 -10 30 -5 0 -10 -7 -10 -15z"/>
<path d="M1580 1501 c0 -12 5 -21 10 -21 6 0 10 -9 10 -20 0 -13 7 -20 20 -20
20 0 20 -7 20 -405 0 -362 -2 -405 -16 -405 -8 0 -22 -6 -30 -14 -16 -16 -19
-76 -4 -76 6 0 10 7 10 15 0 10 10 15 28 15 50 0 52 15 52 482 0 279 -3 428
-10 428 -5 0 -10 7 -10 15 0 9 -9 15 -24 15 -13 0 -31 3 -40 6 -12 4 -16 0
-16 -15z"/>
<path d="M180 1465 c0 -8 -9 -15 -20 -15 -12 0 -20 -7 -20 -16 0 -12 5 -14 18
-8 9 4 34 9 55 12 34 4 37 2 37 -22 0 -14 5 -26 10 -26 6 0 10 -120 10 -340 0
-220 -4 -340 -10 -340 -5 0 -10 -11 -10 -25 0 -22 -4 -25 -35 -25 -24 0 -35 5
-35 15 0 8 -9 15 -20 15 -11 0 -20 -7 -20 -15 0 -8 9 -15 20 -15 13 0 20 -7
20 -20 0 -17 7 -20 45 -20 38 0 45 3 45 20 0 14 7 20 23 20 18 0 19 2 7 10
-10 6 -11 10 -2 10 9 0 12 81 12 373 0 361 -1 373 -20 387 -11 8 -20 20 -20
27 0 9 -15 13 -45 13 -33 0 -45 -4 -45 -15z"/>
<path d="M1760 1469 c0 -7 -9 -19 -20 -29 -18 -16 -19 -33 -22 -398 -2 -301 0
-382 10 -382 6 0 12 -9 12 -19 0 -30 84 -46 133 -26 18 8 24 45 7 45 -5 0 -10
-7 -10 -15 0 -10 -11 -15 -35 -15 -32 0 -35 2 -35 30 0 23 -4 30 -20 30 -20 0
-20 7 -20 350 0 343 0 350 20 350 15 0 20 7 20 25 0 22 4 25 34 25 19 0 36 -5
38 -12 3 -8 9 -8 23 -1 17 10 17 11 -3 17 -12 4 -22 14 -22 22 0 10 -14 14
-55 14 -34 0 -55 -4 -55 -11z"/>
<path d="M440 1360 c0 -5 5 -10 10 -10 6 0 10 -7 10 -15 0 -9 9 -15 25 -15 14
0 28 -7 31 -15 4 -9 19 -15 36 -15 30 0 58 -19 58 -39 0 -6 18 -11 40 -11 29
0 40 -4 40 -15 0 -10 10 -15 30 -15 l30 0 0 -170 0 -170 -30 0 c-20 0 -30 -5
-30 -15 0 -11 -11 -15 -40 -15 -29 0 -40 -4 -40 -15 0 -8 -4 -15 -10 -15 -5 0
-10 -7 -10 -15 0 -11 -11 -15 -41 -15 -24 0 -38 -4 -34 -10 4 -6 -5 -10 -20
-10 -30 0 -55 -21 -55 -44 0 -13 12 -16 60 -16 53 0 60 2 60 20 0 16 7 20 30
20 17 0 30 5 30 10 0 6 11 10 25 10 14 0 25 5 25 10 0 6 14 10 30 10 20 0 30
5 30 15 0 9 9 15 25 15 18 0 25 5 25 19 0 11 7 26 15 35 12 12 15 46 15 180 0
141 -2 166 -15 166 -10 0 -15 10 -15 30 0 25 -4 30 -25 30 -14 0 -25 5 -25 10
0 6 -13 10 -30 10 -20 0 -30 5 -30 15 0 9 -9 15 -25 15 -16 0 -25 6 -25 15 0
10 -10 15 -30 15 -16 0 -30 5 -30 10 0 6 -27 10 -60 10 -33 0 -60 -4 -60 -10z"/>
<path d="M1475 1360 c-3 -5 -24 -10 -46 -10 -28 0 -39 -4 -39 -15 0 -10 -10
-15 -30 -15 -20 0 -30 -5 -30 -15 0 -9 -9 -15 -25 -15 -14 0 -25 -4 -25 -10 0
-5 -9 -10 -20 -10 -16 0 -20 -7 -20 -30 0 -23 -4 -30 -20 -30 -19 0 -20 -7
-20 -168 0 -156 1 -169 20 -182 11 -8 20 -22 20 -32 0 -11 7 -18 20 -18 11 0
20 -7 20 -15 0 -9 9 -15 25 -15 14 0 25 -4 25 -10 0 -5 20 -10 45 -10 25 0 45
-4 45 -10 0 -5 11 -10 25 -10 18 0 25 -5 25 -20 0 -18 7 -20 65 -20 52 0 65 3
65 16 0 22 -25 44 -49 44 -12 0 -21 5 -21 10 0 6 -18 10 -40 10 -29 0 -40 4
-40 15 0 9 -9 15 -25 15 -16 0 -25 6 -25 15 0 11 -11 15 -40 15 -29 0 -40 4
-40 15 0 10 -10 15 -30 15 l-30 0 0 170 0 170 30 0 c20 0 30 5 30 15 0 11 11
15 40 15 29 0 40 4 40 15 0 9 9 15 25 15 14 0 25 5 25 10 0 6 18 10 40 10 29
0 40 4 40 15 0 9 9 15 25 15 16 0 25 6 25 15 0 8 5 15 10 15 6 0 10 5 10 10 0
6 -26 10 -59 10 -33 0 -63 -4 -66 -10z"/>
<path d="M840 795 c0 -10 -10 -15 -30 -15 -23 0 -30 -4 -30 -20 0 -11 -7 -20
-15 -20 -9 0 -15 -9 -15 -25 0 -14 -4 -25 -10 -25 -5 0 -10 -13 -10 -30 0 -23
-4 -30 -20 -30 -17 0 -20 -7 -20 -40 0 -22 -4 -40 -10 -40 -6 0 -10 -28 -10
-65 0 -36 2 -65 5 -65 22 0 55 27 55 46 0 12 7 25 16 28 12 5 15 16 12 41 -3
24 0 35 9 35 7 0 13 11 13 25 0 16 6 25 15 25 11 0 15 11 15 40 0 29 4 40 15
40 10 0 15 10 15 30 l0 30 170 0 170 0 0 -30 c0 -16 5 -30 10 -30 6 0 10 -18
10 -40 0 -33 3 -40 20 -40 14 0 20 -7 20 -23 0 -13 3 -27 7 -31 4 -4 6 -23 4
-42 -2 -26 1 -34 13 -34 10 0 16 -9 16 -24 0 -14 7 -26 18 -30 9 -3 23 -9 30
-12 15 -7 17 111 2 121 -5 3 -10 22 -10 42 0 26 -5 36 -20 40 -14 4 -20 14
-20 34 0 16 -4 29 -10 29 -5 0 -10 11 -10 25 0 14 -4 25 -10 25 -5 0 -10 9
-10 20 0 16 -7 20 -30 20 -20 0 -30 5 -30 15 0 13 -26 15 -170 15 -144 0 -170
-2 -170 -15z"/>
<path d="M515 430 c-3 -5 -1 -10 4 -10 6 0 11 -13 11 -30 0 -20 5 -30 15 -30
8 0 15 -4 15 -10 0 -7 155 -10 445 -10 290 0 445 3 445 10 0 6 7 10 15 10 10
0 15 10 15 30 0 20 5 30 15 30 8 0 15 5 15 10 0 6 -13 10 -30 10 -16 0 -30 -4
-30 -10 0 -5 -7 -10 -15 -10 -8 0 -15 -7 -15 -15 0 -13 -53 -15 -415 -15 -362
0 -415 2 -415 15 0 8 -7 15 -15 15 -8 0 -15 5 -15 10 0 6 -9 10 -19 10 -11 0
-23 -4 -26 -10z"/>
<path d="M655 300 c-3 -11 -13 -20 -21 -20 -30 0 -44 -27 -44 -83 0 -52 2 -56
30 -66 24 -8 30 -7 30 5 0 7 -7 14 -15 14 -10 0 -15 11 -15 35 0 31 3 35 25
35 18 0 25 5 25 20 0 20 7 20 329 20 320 0 329 -1 334 -20 3 -14 14 -20 31
-20 23 0 26 -4 26 -35 0 -24 -5 -35 -15 -35 -8 0 -15 -4 -15 -10 0 -11 20 -13
44 -4 12 5 16 20 16 61 0 56 -14 83 -44 83 -9 0 -16 5 -16 10 0 6 -6 10 -14
10 -8 0 -17 6 -19 13 -4 10 -6 10 -6 0 -1 -7 -8 -13 -16 -13 -8 0 -15 6 -15
13 0 8 -4 7 -10 -3 -9 -13 -10 -13 -10 0 0 13 -1 13 -10 0 -9 -13 -10 -13 -10
0 0 13 -1 13 -10 0 -9 -13 -11 -13 -20 0 -9 13 -10 13 -10 0 0 -13 -1 -13 -10
0 -9 13 -10 13 -10 0 0 -13 -1 -13 -10 0 -8 12 -11 13 -19 1 -7 -11 -9 -11
-14 0 -4 12 -7 11 -16 -1 -7 -10 -11 -11 -11 -2 0 9 -44 12 -185 12 -117 0
-185 -4 -185 -10 0 -5 -16 -10 -35 -10 -19 0 -35 5 -35 10 0 18 -18 11 -25
-10z"/>
</g>
</svg>
